HIERARCHY
ROOT Hips
{
 OFFSET 0.000000 0.000000 0.000000
 CHANNELS 6 Xposition Yposition Zposition Yrotation Xrotation Zrotation
 JOINT Chest
 {
  OFFSET 0.000000 9.857222 0.000240
  CHANNELS 3 Yrotation Xrotation Zrotation
  JOINT Chest2
  {
   OFFSET 0.000000 10.876940 -0.000436
   CHANNELS 3 Yrotation Xrotation Zrotation
   JOINT Chest3
   {
    OFFSET 0.000000 9.827798 0.000000
    CHANNELS 3 Yrotation Xrotation Zrotation
    JOINT Chest4
    {
     OFFSET 0.000000 9.827798 0.000000
     CHANNELS 3 Yrotation Xrotation Zrotation
     JOINT Neck
     {
      OFFSET 0.000000 13.831992 0.000000
      CHANNELS 3 Yrotation Xrotation Zrotation
      JOINT Head
      {
       OFFSET 0.000000 9.147643 -0.001036
       CHANNELS 3 Yrotation Xrotation Zrotation
       End Site
       {
        OFFSET 0.000000 17.515799 -0.000541
       }
      }
     }
     JOINT RightCollar
     {
      OFFSET -3.001579 7.717577 0.000000
      CHANNELS 3 Yrotation Xrotation Zrotation
      JOINT RightShoulder
      {
       OFFSET -14.002642 0.000000 0.000000
       CHANNELS 3 Yrotation Xrotation Zrotation
       JOINT RightElbow
       {
        OFFSET -30.053852 0.000000 0.000000
        CHANNELS 3 Yrotation Xrotation Zrotation
        JOINT RightWrist
        {
         OFFSET -24.564923 0.000000 -0.000000
         CHANNELS 3 Yrotation Xrotation Zrotation
         End Site
         {
          OFFSET -18.334355 0.000000 0.000000
         }
        }
       }
      }
     }
     JOINT LeftCollar
     {
      OFFSET 3.001579 7.717577 0.000000
      CHANNELS 3 Yrotation Xrotation Zrotation
      JOINT LeftShoulder
      {
       OFFSET 14.002642 0.000000 0.000000
       CHANNELS 3 Yrotation Xrotation Zrotation
       JOINT LeftElbow
       {
        OFFSET 30.053852 0.000000 0.000000
        CHANNELS 3 Yrotation Xrotation Zrotation
        JOINT LeftWrist
        {
         OFFSET 24.564923 0.000000 -0.000000
         CHANNELS 3 Yrotation Xrotation Zrotation
         End Site
         {
          OFFSET 18.334355 0.000000 0.000000
         }
        }
       }
      }
     }
    }
   }
  }
 }
 JOINT RightHip
 {
  OFFSET -8.003235 -0.001175 -0.000120
  CHANNELS 3 Yrotation Xrotation Zrotation
  JOINT RightKnee
  {
   OFFSET 0.000000 -41.759727 0.000113
   CHANNELS 3 Yrotation Xrotation Zrotation
   JOINT RightAnkle
   {
    OFFSET 0.000000 -40.728748 0.000159
    CHANNELS 3 Yrotation Xrotation Zrotation
    JOINT RightToe
    {
     OFFSET 0.000000 -6.515296 14.732841
     CHANNELS 3 Yrotation Xrotation Zrotation
     End Site
     {
      OFFSET 0.000000 -1.502839 6.412115
     }
    }
   }
  }
 }
 JOINT LeftHip
 {
  OFFSET 8.003235 -0.001175 -0.000120
  CHANNELS 3 Yrotation Xrotation Zrotation
  JOINT LeftKnee
  {
   OFFSET 0.000000 -41.759727 0.000113
   CHANNELS 3 Yrotation Xrotation Zrotation
   JOINT LeftAnkle
   {
    OFFSET 0.000000 -40.728748 0.000159
    CHANNELS 3 Yrotation Xrotation Zrotation
    JOINT LeftToe
    {
     OFFSET 0.000000 -6.515296 14.732841
     CHANNELS 3 Yrotation Xrotation Zrotation
     End Site
     {
      OFFSET 0.000000 -1.502839 6.412115
     }
    }
   }
  }
 }
}
MOTION
Frames: 12
Frame Time: 0.016667
0.000000 88.822259 0.000000 0.000000 -5.826342 0.000000 0.000000 11.116423 0.000000 0.000000 -5.290081 0.000000 0.000000 0.000000 0.000000 0.000000 0.000000 0.000000 0.000000 12.665069 0.000000 0.000000 0.575450 0.000000 0.000000 0.000000 0.000000 0.000000 0.000000 0.000000 2.337306 0.000000 0.000000 -2.337306 0.000000 0.000000 0.000000 0.000000 0.000000 0.000000 0.000000 0.000000 -2.337306 0.000000 0.000000 2.337306 0.000000 0.000000 0.000000 8.578828 0.000000 0.000000 1.905768 0.000000 0.000000 -4.658254 0.000000 0.000000 0.000000 0.000000 0.000000 8.578828 0.000000 0.000000 1.905768 0.000000 0.000000 -4.658254 0.000000 0.000000 0.000000 0.000000
1.344517 90.648066 5.799648 -26.272472 -9.295950 -2.091242 1.189992 2.958166 -0.844777 0.458298 1.348754 -0.387612 0.458298 1.348754 -0.387612 0.344563 1.011276 -0.291707 -7.299929 27.059023 1.598758 -13.343888 14.504799 4.385184 3.973951 3.524548 9.767738 52.013724 6.578857 91.187866 24.455227 10.046316 -5.785117 1.934866 -1.060086 -1.338088 -20.215385 4.131415 -14.658530 -8.676413 25.021671 -58.415496 -39.744143 -14.365394 -10.830283 -5.158728 6.871332 22.249394 -2.349130 6.252495 4.190544 -11.664722 7.732611 -3.404295 -0.419962 -7.926682 2.023716 -0.628045 0.007228 -0.299645 -17.861192 6.625623 1.521534 20.533722 8.422238 -2.517579 -3.493393 -4.882581 -0.413792 0.490488 0.045931 0.218298
1.338285 90.647497 5.782415 -26.260404 -9.297824 -2.081642 1.206556 2.976381 -0.828147 0.461299 1.355110 -0.380184 0.461299 1.355110 -0.380184 0.346801 1.016047 -0.286148 -7.307062 27.062592 1.589379 -13.354451 14.510944 4.369643 3.953685 3.512309 9.750873 52.009690 6.583293 91.154315 24.377156 9.983965 -5.783919 1.945719 -1.068597 -1.369931 -20.183029 4.083183 -14.644010 -8.651656 24.996817 -58.384794 -39.746444 -14.760797 -10.967320 -5.004237 6.945442 22.114598 -2.404245 6.255005 4.168542 -11.600533 7.729195 -3.376578 -0.367561 -7.904666 2.018152 -0.656677 -0.004656 -0.316234 -17.842353 6.607124 1.519611 20.539603 8.433321 -2.506418 -3.487930 -4.871197 -0.425518 0.511793 0.040743 0.221544
1.337106 90.647107 5.771755 -26.247116 -9.310173 -2.068960 1.217667 2.998497 -0.811968 0.464140 1.362782 -0.372384 0.464140 1.362782 -0.372384 0.348919 1.021805 -0.280310 -7.305992 27.062776 1.578956 -13.350337 14.509938 4.350913 3.948425 3.509152 9.734755 52.019295 6.586433 91.121844 24.299602 9.924761 -5.800311 1.940362 -1.072610 -1.369053 -20.160580 4.032979 -14.634866 -8.630088 24.973335 -58.326011 -39.710356 -15.175064 -11.472441 -4.909262 6.909623 22.118848 -2.468160 6.269485 4.129165 -11.530989 7.726747 -3.351895 -0.427998 -7.888019 2.026684 -0.661442 -0.008183 -0.317951 -17.825570 6.604750 1.527283 20.559490 8.455971 -2.505343 -3.526907 -4.866054 -0.426844 0.506284 0.031224 0.213554
1.342103 90.646600 5.763683 -26.272571 -9.306366 -2.058363 1.238034 3.010521 -0.794279 0.473792 1.368960 -0.364290 0.473792 1.368960 -0.364290 0.356143 1.026439 -0.274266 -7.302669 27.059577 1.569153 -13.342499 14.502541 4.333157 3.966311 3.493006 9.735279 52.014748 6.597499 91.069829 24.211890 9.891380 -5.780383 1.931523 -1.055762 -1.367698 -20.165337 3.982466 -14.638007 -8.566260 24.919975 -58.229014 -39.639251 -15.642239 -11.970832 -4.859005 6.965824 22.076014 -2.496847 6.268215 4.097023 -11.467752 7.715025 -3.316881 -0.355435 -7.864187 2.027137 -0.683381 -0.013103 -0.334188 -17.754972 6.594533 1.541886 20.556356 8.463595 -2.517111 -3.613759 -4.863885 -0.414971 0.522797 0.030246 0.215112
1.347986 90.644785 5.756803 -26.288673 -9.314327 -2.049298 1.259459 3.029586 -0.768079 0.478781 1.378294 -0.356017 0.478781 1.378294 -0.356017 0.359872 1.033443 -0.268080 -7.302182 27.054376 1.555433 -13.338976 14.491236 4.309220 3.968898 3.493352 9.728455 52.055113 6.605968 91.008415 24.119567 9.882131 -5.745789 1.925714 -1.042402 -1.358016 -20.181847 3.940660 -14.653659 -8.540527 24.852676 -58.156464 -39.531208 -16.095415 -12.215034 -4.875332 7.295852 21.815327 -2.503423 6.271765 4.063030 -11.408286 7.715865 -3.283220 -0.302598 -7.846497 2.037357 -0.696212 -0.016504 -0.349722 -17.675879 6.592113 1.551182 20.540332 8.477184 -2.512162 -3.673737 -4.880331 -0.407467 0.538805 0.040128 0.210310
1.365561 90.641909 5.752365 -26.318904 -9.321732 -2.043444 1.270299 3.048047 -0.754161 0.485025 1.388817 -0.349492 0.485025 1.388817 -0.349492 0.364546 1.041337 -0.263209 -7.284778 27.048018 1.552492 -13.307642 14.477511 4.301084 3.972108 3.494520 9.734466 52.157758 6.605920 90.958930 24.011479 9.813465 -5.750914 1.921874 -0.991222 -1.327082 -20.192547 3.907923 -14.655426 -8.544033 24.793266 -58.095634 -39.422969 -16.194746 -12.373469 -4.878312 7.425837 21.709108 -2.462264 6.272621 4.043870 -11.317445 7.710225 -3.254801 -0.240132 -7.840165 2.040368 -0.715391 -0.003688 -0.358254 -17.573389 6.604465 1.571122 20.552582 8.465706 -2.544680 -3.762038 -4.882715 -0.360850 0.554927 0.050324 0.202465
1.371866 90.639258 5.744045 -26.299814 -9.354938 -2.046659 1.259855 3.085551 -0.729802 0.478166 1.406358 -0.347007 0.478166 1.406358 -0.347007 0.359406 1.054498 -0.261343 -7.282438 27.036787 1.549236 -13.303302 14.456130 4.295921 3.986249 3.461133 9.750021 52.281219 6.601605 90.925699 23.875955 9.688416 -5.802070 1.935046 -0.956176 -1.293497 -20.254643 3.868201 -14.677016 -8.546439 24.747549 -58.041273 -39.316751 -15.950160 -12.458957 -4.878308 7.457805 21.692857 -2.639408 6.338220 4.018545 -11.075769 7.661948 -3.237946 -0.342581 -7.811341 2.047714 -0.710220 0.003656 -0.349913 -17.548695 6.629246 1.575578 20.525108 8.469641 -2.549319 -3.752569 -4.899230 -0.344406 0.574409 0.063390 0.197947
1.388441 90.637711 5.738983 -26.263883 -9.394910 -2.042174 1.247827 3.118299 -0.711700 0.463918 1.423950 -0.345384 0.463918 1.423950 -0.345384 0.348725 1.067701 -0.260106 -7.279868 27.026627 1.552057 -13.299787 14.437433 4.301392 3.981058 3.450349 9.755527 52.387023 6.585721 90.881889 23.755030 9.588341 -5.836065 1.939732 -0.923510 -1.281654 -20.295754 3.831104 -14.682636 -8.653603 24.751009 -58.037260 -39.164646 -15.733593 -12.439300 -4.872916 7.483325 21.719036 -2.964014 6.411351 3.922300 -10.765301 7.639734 -3.154914 -0.353626 -7.793524 2.032265 -0.721165 0.006463 -0.353867 -17.499779 6.659275 1.575797 20.449534 8.467561 -2.563856 -3.811365 -4.895636 -0.331782 0.592642 0.061748 0.207741
1.394928 90.635312 5.727122 -26.296702 -9.402461 -2.053098 1.272565 3.137584 -0.679961 0.462924 1.434557 -0.341236 0.462924 1.434557 -0.341236 0.347976 1.075660 -0.257001 -7.284560 27.010604 1.561454 -13.310873 14.409346 4.320582 3.963936 3.450183 9.758636 52.448286 6.544390 90.812469 23.639803 9.509830 -5.851027 1.936783 -0.888336 -1.265038 -20.338300 3.821461 -14.691432 -8.812538 24.768262 -58.033480 -39.009194 -15.630855 -12.339089 -4.879176 7.487440 21.742470 -3.057608 6.431900 3.901162 -10.676633 7.606433 -3.116392 -0.260466 -7.767028 2.023159 -0.714826 0.007660 -0.360005 -17.343138 6.669082 1.621399 20.421522 8.473091 -2.572992 -3.938794 -4.918668 -0.312549 0.615042 0.076396 0.212010
1.375554 90.630375 5.699846 -26.306242 -9.391882 -2.061065 1.282567 3.151654 -0.647204 0.452632 1.444054 -0.337671 0.452632 1.444054 -0.337671 0.340254 1.082791 -0.254309 -7.283148 26.992169 1.573344 -13.311730 14.376529 4.343189 3.949752 3.448640 9.749024 52.487718 6.487646 90.726344 23.544361 9.449396 -5.842212 1.929787 -0.899369 -1.281406 -20.364402 3.814981 -14.706968 -8.961742 24.791793 -58.005349 -38.844972 -15.667964 -12.289108 -4.865010 7.399670 21.809730 -3.004861 6.412820 3.966310 -10.698073 7.580167 -3.178633 -0.231861 -7.747332 2.059913 -0.712496 0.006239 -0.373518 -17.203367 6.664564 1.682412 20.273194 8.464245 -2.585206 -3.914638 -4.937872 -0.330628 0.649711 0.093685 0.221246
1.347869 90.623244 5.659534 -26.420676 -9.355348 -2.061589 1.358834 3.136406 -0.611526 0.451300 1.451794 -0.330632 0.451300 1.451794 -0.330632 0.339243 1.088602 -0.249033 -7.288863 26.976980 1.580232 -13.324077 14.349785 4.358057 3.949197 3.433437 9.729779 52.496533 6.446956 90.652400 23.469639 9.367862 -5.863021 1.929300 -0.874768 -1.263224 -20.382214 3.797281 -14.723091 -9.069654 24.788488 -58.000266 -38.667263 -15.845127 -12.303144 -4.855713 7.445200 21.827614 -2.888512 6.381306 4.035610 -10.619900 7.509934 -3.220530 -0.202003 -7.713186 2.112094 -0.775997 0.020126 -0.414916 -16.958911 6.618235 1.767703 20.230939 8.504933 -2.572958 -3.988096 -4.982948 -0.356610 0.685533 0.107097 0.231788
